<?xml version="1.0" encoding="UTF-8"?>
<!DOCTYPE svg PUBLIC "-//W3C//DTD SVG 1.1//EN" "http://www.w3.org/Graphics/SVG/1.1/DTD/svg11.dtd">
<svg xmlns="http://www.w3.org/2000/svg" version="1.1" width="2611px" height="1920px" style="shape-rendering:geometricPrecision; text-rendering:geometricPrecision; image-rendering:optimizeQuality; fill-rule:evenodd; clip-rule:evenodd" xmlns:xlink="http://www.w3.org/1999/xlink">
<g><path style="opacity:1" fill="#fefefe" d="M -0.5,-0.5 C 869.833,-0.5 1740.17,-0.5 2610.5,-0.5C 2610.5,639.5 2610.5,1279.5 2610.5,1919.5C 1740.17,1919.5 869.833,1919.5 -0.5,1919.5C -0.5,1279.5 -0.5,639.5 -0.5,-0.5 Z"/></g>
<g><path style="opacity:1" fill="#db7c73" d="M 2392.5,7.5 C 2432.5,5.73048 2457.67,24.0638 2468,62.5C 2503.89,405.844 2539.89,749.177 2576,1092.5C 2577.9,1120.2 2567.4,1141.7 2544.5,1157C 2536.04,1161.6 2527.04,1164.6 2517.5,1166C 1747.15,1246.81 976.819,1327.81 206.5,1409C 178.029,1411.35 156.196,1400.51 141,1376.5C 137.338,1369.18 134.672,1361.52 133,1353.5C 97.3559,1010.46 61.3559,667.458 25,324.5C 23.0848,291.817 36.9181,268.651 66.5,255C 71.6767,253.039 77.01,251.706 82.5,251C 852.713,170.264 1622.71,89.097 2392.5,7.5 Z"/></g>
<g><path style="opacity:1" fill="#fefefe" d="M 2060.5,154.5 C 2063.25,154.187 2065.91,154.52 2068.5,155.5C 2006.96,276.745 1945.29,397.911 1883.5,519C 1995.37,706.583 2107.37,894.083 2219.5,1081.5C 2200.61,1084.47 2181.61,1086.97 2162.5,1089C 2083.51,1097.07 2004.51,1105.07 1925.5,1113C 1862.79,1001.09 1799.96,889.252 1737,777.5C 1712.26,825.99 1687.26,874.324 1662,922.5C 1669.11,994.825 1676.28,1067.16 1683.5,1139.5C 1599.14,1147.84 1514.81,1156.5 1430.5,1165.5C 1398.05,854.108 1365.38,542.775 1332.5,231.5C 1417.19,222.691 1501.86,214.024 1586.5,205.5C 1599.58,333.538 1613.08,461.538 1627,589.5C 1693.39,453.044 1760.06,316.711 1827,180.5C 1904.91,171.879 1982.74,163.212 2060.5,154.5 Z"/></g>
<g><path style="opacity:1" fill="#fefefe" d="M 956.5,271.5 C 983.307,270.577 1009.97,272.077 1036.5,276C 1088.76,284.369 1131.59,308.869 1165,349.5C 1224.6,422.842 1240.6,504.842 1213,595.5C 1193.08,650.423 1155.91,688.59 1101.5,710C 1222.04,730.213 1286.21,801.379 1294,923.5C 1297.81,988.194 1283.47,1048.53 1251,1104.5C 1232.78,1131.05 1209.28,1151.55 1180.5,1166C 1149.08,1180.81 1116.42,1191.81 1082.5,1199C 1062.27,1202.98 1041.94,1206.31 1021.5,1209C 876.878,1224.1 732.212,1239.26 587.5,1254.5C 555.049,943.108 522.382,631.775 489.5,320.5C 645.339,304.433 801.005,288.1 956.5,271.5 Z"/></g>
<g><path style="opacity:1" fill="#db7c73" d="M 876.5,482.5 C 890.208,482.138 903.874,482.638 917.5,484C 948.771,489.271 967.604,507.437 974,538.5C 979.047,563.887 974.713,587.554 961,609.5C 951.873,621.489 940.039,629.655 925.5,634C 912.38,637.614 899.047,639.947 885.5,641C 848.811,644.873 812.144,648.706 775.5,652.5C 769.74,600.179 764.073,547.845 758.5,495.5C 797.982,491.298 837.316,486.965 876.5,482.5 Z"/></g>
<g><path style="opacity:1" fill="#db7c73" d="M 796.5,857.5 C 796.5,855.5 796.5,853.5 796.5,851.5C 798.099,851.768 799.432,851.434 800.5,850.5C 840.145,846.225 879.811,842.058 919.5,838C 944.662,834.528 968.662,838.195 991.5,849C 1027.04,876.972 1037.54,912.472 1023,955.5C 1012.82,980.349 994.651,995.849 968.5,1002C 962.5,1003.33 956.5,1004.67 950.5,1006C 904.779,1010.34 859.112,1015.17 813.5,1020.5C 808.069,966.116 802.402,911.782 796.5,857.5 Z"/></g>
<g><path style="opacity:1" fill="#efcac7" d="M 800.5,850.5 C 799.432,851.434 798.099,851.768 796.5,851.5C 796.5,853.5 796.5,855.5 796.5,857.5C 795.532,855.393 795.198,853.059 795.5,850.5C 797.167,850.5 798.833,850.5 800.5,850.5 Z"/></g>
<g><path style="opacity:1" fill="#db7c73" d="M 2298.5,1251.5 C 2334.82,1248.27 2369.82,1253.44 2403.5,1267C 2437.67,1283.5 2463.67,1308.5 2481.5,1342C 2445.2,1357.27 2408.87,1372.43 2372.5,1387.5C 2355.81,1360.49 2331.48,1348.32 2299.5,1351C 2287.92,1351.31 2276.92,1353.98 2266.5,1359C 2252.17,1369.09 2249.67,1381.59 2259,1396.5C 2267.31,1403.05 2276.81,1406.89 2287.5,1408C 2324,1411.47 2360.33,1416.14 2396.5,1422C 2445.94,1428.11 2481.78,1453.28 2504,1497.5C 2529.03,1574.76 2506.86,1634.26 2437.5,1676C 2400.36,1695.87 2360.69,1706.87 2318.5,1709C 2283.99,1712.69 2250.33,1709.03 2217.5,1698C 2167.99,1678.83 2134.49,1644.33 2117,1594.5C 2157.82,1582.59 2198.65,1570.59 2239.5,1558.5C 2258.5,1595.66 2288.83,1610.5 2330.5,1603C 2344.21,1602.21 2356.88,1598.21 2368.5,1591C 2376.59,1582.98 2378.75,1573.48 2375,1562.5C 2369.01,1552.58 2360.18,1546.74 2348.5,1545C 2319.53,1541.13 2290.53,1537.46 2261.5,1534C 2231.4,1529.98 2202.73,1521.31 2175.5,1508C 2133.99,1479.14 2115.49,1439.3 2120,1388.5C 2126.36,1341.6 2149.86,1306.1 2190.5,1282C 2210.08,1271.36 2230.75,1263.7 2252.5,1259C 2267.9,1256 2283.23,1253.5 2298.5,1251.5 Z"/></g>
<g><path style="opacity:1" fill="#db7c73" d="M 2067.5,1282.5 C 2069.83,1282.5 2072.17,1282.5 2074.5,1282.5C 2077.97,1316.49 2081.3,1350.49 2084.5,1384.5C 2017.86,1391.63 1951.19,1398.63 1884.5,1405.5C 1886.3,1426.52 1888.3,1447.52 1890.5,1468.5C 1944.83,1463.17 1999.17,1457.83 2053.5,1452.5C 2056.61,1485.19 2059.95,1517.86 2063.5,1550.5C 2009.54,1555.96 1955.54,1561.29 1901.5,1566.5C 1903.54,1590.53 1905.87,1614.53 1908.5,1638.5C 1975.48,1631.54 2042.48,1624.87 2109.5,1618.5C 2113.24,1653.49 2116.91,1688.49 2120.5,1723.5C 2008.87,1735.23 1897.2,1746.9 1785.5,1758.5C 1769.44,1611.6 1754.1,1464.6 1739.5,1317.5C 1849.02,1306.26 1958.35,1294.59 2067.5,1282.5 Z"/></g>
<g><path style="opacity:1" fill="#db7c73" d="M 1549.5,1473.5 C 1549.7,1471.01 1549.2,1468.68 1548,1466.5C 1547.51,1467.79 1547.34,1469.13 1547.5,1470.5C 1530.85,1576.4 1514.85,1682.4 1499.5,1788.5C 1470.22,1791.94 1440.89,1794.94 1411.5,1797.5C 1373.73,1697.95 1335.39,1598.62 1296.5,1499.5C 1296.15,1497.29 1295.32,1495.29 1294,1493.5C 1293.81,1497.35 1294.31,1501.02 1295.5,1504.5C 1305.97,1605.15 1316.3,1705.82 1326.5,1806.5C 1292.54,1810.5 1258.54,1814.16 1224.5,1817.5C 1208.44,1670.6 1193.1,1523.6 1178.5,1376.5C 1237.79,1369.94 1297.12,1364.1 1356.5,1359C 1386.19,1433.74 1415.69,1508.57 1445,1583.5C 1458.06,1504 1470.56,1424.34 1482.5,1344.5C 1542.45,1337.99 1602.45,1331.99 1662.5,1326.5C 1677.63,1472.18 1692.97,1617.85 1708.5,1763.5C 1708.17,1764.5 1707.83,1765.5 1707.5,1766.5C 1669.21,1770.9 1630.88,1775.06 1592.5,1779C 1588.79,1779.83 1585.12,1779.66 1581.5,1778.5C 1570.33,1676.95 1559.66,1575.28 1549.5,1473.5 Z"/></g>
<g><path style="opacity:1" fill="#db7c73" d="M 1182.5,1820.5 C 1181.83,1821.17 1181.17,1821.83 1180.5,1822.5C 1136.14,1826.93 1091.81,1831.6 1047.5,1836.5C 1046.17,1836.17 1044.83,1835.83 1043.5,1835.5C 1032.61,1808.05 1021.44,1780.72 1010,1753.5C 1009.44,1752.98 1008.77,1752.64 1008,1752.5C 968.893,1757.03 929.727,1761.19 890.5,1765C 884.52,1793.4 878.853,1821.9 873.5,1850.5C 873.351,1852.32 872.684,1853.82 871.5,1855C 836.503,1858.64 801.503,1862.14 766.5,1865.5C 765.167,1865.5 763.833,1865.5 762.5,1865.5C 762.5,1864.5 762.5,1863.5 762.5,1862.5C 792.598,1712.17 822.765,1561.84 853,1411.5C 899.403,1406.08 945.903,1401.08 992.5,1396.5C 994.964,1396.59 997.13,1397.26 999,1398.5C 1060.08,1539.23 1121.24,1679.9 1182.5,1820.5 Z"/></g>
<g><path style="opacity:1" fill="#db7c73" d="M 492.5,1441.5 C 518.091,1440.11 543.424,1441.94 568.5,1447C 623.724,1461.88 662.558,1495.72 685,1548.5C 689.036,1557.56 692.203,1566.9 694.5,1576.5C 650.865,1585.33 607.199,1593.99 563.5,1602.5C 559.38,1579.4 548.047,1560.9 529.5,1547C 506.936,1536.68 485.603,1538.68 465.5,1553C 452.205,1566.42 444.372,1582.59 442,1601.5C 437.441,1648.68 441.774,1695.02 455,1740.5C 469.534,1780.35 497.701,1796.85 539.5,1790C 569.339,1781.33 584.005,1761.5 583.5,1730.5C 560.322,1732.65 537.155,1734.98 514,1737.5C 512.236,1737.46 510.569,1737.12 509,1736.5C 505.432,1705.55 502.265,1674.55 499.5,1643.5C 566.471,1636.54 633.471,1629.87 700.5,1623.5C 709.164,1705.8 717.497,1788.14 725.5,1870.5C 704.492,1872.36 683.492,1874.36 662.5,1876.5C 661.167,1876.17 659.833,1875.83 658.5,1875.5C 652.287,1860.74 644.787,1846.74 636,1833.5C 614.631,1865.82 584.798,1885.98 546.5,1894C 465.27,1912.37 398.104,1889.87 345,1826.5C 316.409,1785.06 300.742,1739.06 298,1688.5C 291.237,1621.19 308.237,1560.85 349,1507.5C 377.216,1476.34 412.049,1456.5 453.5,1448C 466.588,1445.48 479.588,1443.31 492.5,1441.5 Z"/></g>
<g><path style="opacity:1" fill="#ecc0bc" d="M 1549.5,1473.5 C 1548.83,1472.5 1548.17,1471.5 1547.5,1470.5C 1547.34,1469.13 1547.51,1467.79 1548,1466.5C 1549.2,1468.68 1549.7,1471.01 1549.5,1473.5 Z"/></g>
<g><path style="opacity:1" fill="#f3d4d1" d="M 1296.5,1499.5 C 1295.55,1500.92 1295.22,1502.59 1295.5,1504.5C 1294.31,1501.02 1293.81,1497.35 1294,1493.5C 1295.32,1495.29 1296.15,1497.29 1296.5,1499.5 Z"/></g>
<g><path style="opacity:1" fill="#fefdfd" d="M 925.5,1535.5 C 942.648,1575.82 959.315,1616.49 975.5,1657.5C 951.566,1660.89 927.566,1663.89 903.5,1666.5C 910.994,1622.86 918.327,1579.19 925.5,1535.5 Z"/></g>
<g><path style="opacity:1" fill="#ebbab6" d="M 1182.5,1820.5 C 1183.04,1820.56 1183.38,1820.89 1183.5,1821.5C 1182.68,1822.39 1181.68,1822.72 1180.5,1822.5C 1181.17,1821.83 1181.83,1821.17 1182.5,1820.5 Z"/></g>
<g><path style="opacity:1" fill="#ebbbb6" d="M 762.5,1862.5 C 762.5,1863.5 762.5,1864.5 762.5,1865.5C 763.833,1865.5 765.167,1865.5 766.5,1865.5C 765.081,1866.45 763.415,1866.78 761.5,1866.5C 761.232,1864.9 761.566,1863.57 762.5,1862.5 Z"/></g>
</svg>
